<svg width="32" height="32" viewBox="0 0 32 32" fill="none" xmlns="http://www.w3.org/2000/svg">
<rect width="32" height="32" rx="4" fill="#231D4E"/>
<path d="M11.3239 13.7102C11.2784 13.2519 11.0833 12.8958 10.7386 12.642C10.3939 12.3883 9.92614 12.2614 9.33523 12.2614C8.93371 12.2614 8.5947 12.3182 8.31818 12.4318C8.04167 12.5417 7.82955 12.6951 7.68182 12.892C7.53788 13.089 7.46591 13.3125 7.46591 13.5625C7.45833 13.7708 7.50189 13.9527 7.59659 14.108C7.69508 14.2633 7.82955 14.3977 8 14.5114C8.17045 14.6212 8.36742 14.7178 8.59091 14.8011C8.81439 14.8807 9.05303 14.9489 9.30682 15.0057L10.3523 15.2557C10.8598 15.3693 11.3258 15.5208 11.75 15.7102C12.1742 15.8996 12.5417 16.1326 12.8523 16.4091C13.1629 16.6856 13.4034 17.0114 13.5739 17.3864C13.7481 17.7614 13.8371 18.1913 13.8409 18.6761C13.8371 19.3883 13.6553 20.0057 13.2955 20.5284C12.9394 21.0473 12.4242 21.4508 11.75 21.7386C11.0795 22.0227 10.2708 22.1648 9.32386 22.1648C8.38447 22.1648 7.56629 22.0208 6.86932 21.733C6.17614 21.4451 5.63447 21.0189 5.24432 20.4545C4.85795 19.8864 4.6553 19.1837 4.63636 18.3466H7.01705C7.04356 18.7367 7.1553 19.0625 7.35227 19.3239C7.55303 19.5814 7.82008 19.7765 8.15341 19.9091C8.49053 20.0379 8.87121 20.1023 9.29545 20.1023C9.71212 20.1023 10.0739 20.0417 10.3807 19.9205C10.6913 19.7992 10.9318 19.6307 11.1023 19.4148C11.2727 19.1989 11.358 18.9508 11.358 18.6705C11.358 18.4091 11.2803 18.1894 11.125 18.0114C10.9735 17.8333 10.75 17.6818 10.4545 17.5568C10.1629 17.4318 9.80492 17.3182 9.38068 17.2159L8.11364 16.8977C7.13258 16.6591 6.35795 16.286 5.78977 15.7784C5.22159 15.2708 4.93939 14.5871 4.94318 13.7273C4.93939 13.0227 5.12689 12.4072 5.50568 11.8807C5.88826 11.3542 6.41288 10.9432 7.07955 10.6477C7.74621 10.3523 8.50379 10.2045 9.35227 10.2045C10.2159 10.2045 10.9697 10.3523 11.6136 10.6477C12.2614 10.9432 12.7652 11.3542 13.125 11.8807C13.4848 12.4072 13.6705 13.017 13.6818 13.7102H11.3239ZM23.2116 14.125C23.1321 13.8485 23.0204 13.6042 22.8764 13.392C22.7325 13.1761 22.5563 12.9943 22.348 12.8466C22.1435 12.6951 21.9086 12.5795 21.6435 12.5C21.3821 12.4205 21.0923 12.3807 20.7741 12.3807C20.1795 12.3807 19.6567 12.5284 19.206 12.8239C18.759 13.1193 18.4105 13.5492 18.1605 14.1136C17.9105 14.6742 17.7855 15.3598 17.7855 16.1705C17.7855 16.9811 17.9086 17.6705 18.1548 18.2386C18.401 18.8068 18.7495 19.2405 19.2003 19.5398C19.651 19.8352 20.1832 19.983 20.7969 19.983C21.3537 19.983 21.8291 19.8845 22.223 19.6875C22.6207 19.4867 22.9238 19.2045 23.1321 18.8409C23.3442 18.4773 23.4503 18.0473 23.4503 17.5511L23.9503 17.625H20.9503V15.7727H25.8196V17.2386C25.8196 18.2614 25.6037 19.1402 25.1719 19.875C24.7401 20.6061 24.1454 21.1705 23.3878 21.5682C22.6302 21.9621 21.7628 22.1591 20.7855 22.1591C19.6946 22.1591 18.7363 21.9186 17.9105 21.4375C17.0848 20.9527 16.4408 20.2652 15.9787 19.375C15.5204 18.4811 15.2912 17.4205 15.2912 16.1932C15.2912 15.25 15.4276 14.4091 15.7003 13.6705C15.9768 12.928 16.3632 12.2992 16.8594 11.7841C17.3556 11.2689 17.9332 10.8769 18.5923 10.608C19.2514 10.339 19.9654 10.2045 20.7344 10.2045C21.3935 10.2045 22.0071 10.3011 22.5753 10.4943C23.1435 10.6837 23.6473 10.9527 24.0866 11.3011C24.5298 11.6496 24.8916 12.0644 25.1719 12.5455C25.4522 13.0227 25.6321 13.5492 25.7116 14.125H23.2116Z" fill="white"/>
</svg>
